<svg xmlns="http://www.w3.org/2000/svg" xmlns:se="http://svg-edit.googlecode.com" xmlns:xlink="http://www.w3.org/1999/xlink" xmlns:dc="http://purl.org/dc/elements/1.1/" xmlns:cc="http://creativecommons.org/ns#" xmlns:rdf="http://www.w3.org/1999/02/22-rdf-syntax-ns#" xmlns:inkscape="http://www.inkscape.org/namespaces/inkscape" width="128" height="128" style="">                                    <title>my vector image</title>                                    <!-- Created with Vector Paint - http://www.vectorpaint.yaks.com/ https://chrome.google.com/webstore/detail/hnbpdiengicdefcjecjbnjnoifekhgdo -->                                    <rect id="backgroundrect" width="100%" height="100%" x="0" y="0" fill="#FFFFFF" stroke="none" class="" style=""/>                                <g class="currentLayer" style=""><title>Layer 1</title><rect fill="#ffffff" stroke="#000000" stroke-width="2" stroke-linejoin="round" stroke-dashoffset="" fill-rule="nonzero" x="-2.0326985377657714" y="-1.9307943114343065" width="132.12347930483338" height="132.39873495730717" style="color: rgb(0, 0, 0);" class="" id="svg_2" filter="url(#f107)" stroke-opacity="1" fill-opacity="1"/><rect fill="#eb1a1a" stroke="#222222" stroke-width="2" stroke-linejoin="round" stroke-dashoffset="" fill-rule="nonzero" x="18.775421142578125" y="24.368139266967773" width="22.61748504638672" height="83.88208770751953" style="color: rgb(0, 0, 0);" class="" fill-opacity="1" filter="" opacity="0.84" id="svg_53"/><rect fill="#4a90d6" stroke="#222222" stroke-width="2" stroke-linejoin="round" stroke-dashoffset="" fill-rule="nonzero" x="81.07669830322266" y="68.43807983398438" width="4" height="0" style="color: rgb(0, 0, 0);" class="" id="svg_14"/><rect fill="#1a1aeb" stroke="#222222" stroke-width="2" stroke-linejoin="round" stroke-dashoffset="" fill-rule="nonzero" x="41.387664794921875" y="24.368139266967773" width="22.61748504638672" height="83.88208770751953" style="color: rgb(0, 0, 0);" class="" fill-opacity="1" filter="" opacity="0.73" id="svg_32"/><path fill="#4a90d6" fill-opacity="1" stroke="#222222" stroke-opacity="1" stroke-width="3" stroke-dasharray="none" stroke-linejoin="round" stroke-linecap="butt" stroke-dashoffset="" fill-rule="nonzero" opacity="1" marker-start="" marker-mid="" marker-end="" d="M73.37158340751783,106.21993193831167 L84.1349817159784,97.57659693303273 " class="" id="svg_27"/><rect fill="#4a90d6" stroke="#222222" stroke-width="2" stroke-linejoin="round" stroke-dashoffset="" fill-rule="nonzero" x="81.07669830322266" y="68.43807983398438" width="4" height="0" style="color: rgb(0, 0, 0);" class="" id="svg_30"/><path fill="#4a90d6" fill-opacity="1" stroke="#222222" stroke-opacity="1" stroke-width="3" stroke-dasharray="none" stroke-linejoin="round" stroke-linecap="butt" stroke-dashoffset="" fill-rule="nonzero" opacity="1" marker-start="" marker-mid="" marker-end="" d="M73.37158340751783,106.21993193831167 L84.1349817159784,97.57659693303273 " class="" filter="" id="svg_36"/><path fill="#1a1aeb" fill-opacity="1" stroke="#222222" stroke-opacity="1" stroke-width="2" stroke-dasharray="none" stroke-linejoin="round" stroke-linecap="butt" stroke-dashoffset="" fill-rule="nonzero" opacity="1" marker-start="" marker-mid="" marker-end="" d="M18.457014339341043,23.568344457566567 L18.478934435497024,107.4328547755783 " class="" id="svg_50"/><path fill="#ffffff" fill-opacity="1" stroke="#000000" stroke-opacity="1" stroke-width="2" stroke-dasharray="none" stroke-linejoin="round" stroke-linecap="butt" stroke-dashoffset="" fill-rule="nonzero" opacity="1" marker-start="" marker-mid="" marker-end="" d="M17.60020481060479,24.22761594594368 L110.29529525130694,24.3092466527308 " class="" id="svg_51"/><path fill="#ffffff" fill-opacity="1" stroke="#000000" stroke-opacity="1" stroke-width="2" stroke-dasharray="none" stroke-linejoin="round" stroke-linecap="butt" stroke-dashoffset="" fill-rule="nonzero" opacity="1" marker-start="" marker-mid="" marker-end="" d="M44.193706324154675,58.245247934352264 L46.37552450597286,58.154338843443185 " class="" id="svg_43"/><path fill="#ffffff" fill-opacity="1" stroke="#000000" stroke-opacity="1" stroke-width="2" stroke-dasharray="none" stroke-linejoin="round" stroke-linecap="butt" stroke-dashoffset="" fill-rule="nonzero" opacity="1" marker-start="" marker-mid="" marker-end="" d="M72.44029314274147,106.32034610076384 L74.44029296934616,106.32034610076384 " class="" transform="rotate(3.012786865234375 73.44029235839797,106.32041168212868) " id="svg_44"/><path fill="#ffffff" fill-opacity="1" stroke="#000000" stroke-opacity="1" stroke-width="2" stroke-dasharray="none" stroke-linejoin="round" stroke-linecap="butt" stroke-dashoffset="" fill-rule="nonzero" opacity="1" marker-start="" marker-mid="" marker-end="" d="M83.07665671272713,97.41125522147524 L85.25847489454529,97.41125522147524 " class="" id="svg_45"/><rect fill="#4a90d6" stroke="#222222" stroke-width="2" stroke-linejoin="round" stroke-dashoffset="" fill-rule="nonzero" x="81.07669830322266" y="68.43807983398438" width="4" height="0" style="color: rgb(0, 0, 0);" class="" id="svg_5"/><path fill="#4a90d6" fill-opacity="1" stroke="#222222" stroke-opacity="1" stroke-width="3" stroke-dasharray="none" stroke-linejoin="round" stroke-linecap="butt" stroke-dashoffset="" fill-rule="nonzero" opacity="1" marker-start="" marker-mid="" marker-end="" d="M17.178495973551858,84.1358268080583 L46.80422254339133,59.93180183269922 " class="" transform="rotate(-6.839659690856934 31.991359710693555,72.03382110595703) " id="svg_13" filter=""/><rect fill="#0bd50b" stroke="#222222" stroke-width="2" stroke-linejoin="round" stroke-dashoffset="" fill-rule="nonzero" x="63.99991226196289" y="24.368139266967773" width="22.61748504638672" height="83.88208770751953" style="color: rgb(0, 0, 0);" class="" fill-opacity="1" filter="" opacity="1" id="svg_31"/><path fill="#4a90d6" fill-opacity="1" stroke="#222222" stroke-opacity="1" stroke-width="3" stroke-dasharray="none" stroke-linejoin="round" stroke-linecap="butt" stroke-dashoffset="" fill-rule="nonzero" opacity="1" marker-start="" marker-mid="" marker-end="" d="M46.672582350926156,56.957930130404336 L71.85262110157946,88.17177241023356 " class="" transform="rotate(-5.728590488433838 59.26260375976542,72.56485748291016) " id="svg_15" filter=""/><rect fill="#ebeb1a" stroke="#222222" stroke-width="2" stroke-linejoin="round" stroke-dashoffset="" fill-rule="nonzero" x="86.61215209960938" y="24.36813735961914" width="22.61748504638672" height="83.88208770751953" style="color: rgb(0, 0, 0);" class="" fill-opacity="1" filter="" id="svg_17" opacity="1"/><rect fill="#4a90d6" stroke="#222222" stroke-width="2" stroke-linejoin="round" stroke-dashoffset="" fill-rule="nonzero" id="svg_3" x="81.07669830322266" y="68.43807983398438" width="4" height="0" style="color: rgb(0, 0, 0);" class=""/><path fill="#4a90d6" fill-opacity="1" stroke="#222222" stroke-opacity="1" stroke-width="3" stroke-dasharray="none" stroke-linejoin="round" stroke-linecap="butt" stroke-dashoffset="" fill-rule="nonzero" opacity="1" marker-start="" marker-mid="" marker-end="" d="M72.33037102308205,87.25030780205128 L83.62216101025793,78.18265826689492 " id="svg_18" class="" filter=""/><path fill="#4a90d6" fill-opacity="1" stroke="#222222" stroke-opacity="1" stroke-width="3" stroke-dasharray="none" stroke-linejoin="round" stroke-linecap="butt" stroke-dashoffset="" fill-rule="nonzero" opacity="1" marker-start="" marker-mid="" marker-end="" d="M83.8467323483436,78.05149733369022 L109.45341742282513,99.87911482111116 " id="svg_20" class="" transform="rotate(0.48804783821105957 96.65008544921962,88.96537017822334) "/><path fill="#1a1aeb" fill-opacity="1" stroke="#222222" stroke-opacity="1" stroke-width="2" stroke-dasharray="none" stroke-linejoin="round" stroke-linecap="butt" stroke-dashoffset="" fill-rule="nonzero" opacity="1" marker-start="" marker-mid="" marker-end="" d="M109.27180518253532,25.308362300370227 L109.21208642903355,109.13148538766825 " class="" id="svg_23"/><path fill="#ffffff" fill-opacity="1" stroke="#000000" stroke-opacity="1" stroke-width="2" stroke-dasharray="none" stroke-linejoin="round" stroke-linecap="butt" stroke-dashoffset="" fill-rule="nonzero" opacity="1" marker-start="" marker-mid="" marker-end="" d="M17.581763842999692,108.22718435131668 L109.86067491672581,108.30881505810379 " id="svg_34" class=""/><path fill="#ffffff" fill-opacity="1" stroke="#000000" stroke-opacity="1" stroke-width="2" stroke-dasharray="none" stroke-linejoin="round" stroke-linecap="butt" stroke-dashoffset="" fill-rule="nonzero" opacity="1" marker-start="" marker-mid="" marker-end="" d="M82.7812274829908,77.8460384715687 L84.96304566480896,77.8460384715687 " id="svg_12" class=""/><path fill="#ffffff" fill-opacity="1" stroke="#000000" stroke-opacity="1" stroke-width="2" stroke-dasharray="none" stroke-linejoin="round" stroke-linecap="butt" stroke-dashoffset="" fill-rule="nonzero" opacity="1" marker-start="" marker-mid="" marker-end="" d="M72.152877478437,87.04794440757144 L74.33469566025516,87.04794440757144 " class="" id="svg_46"/><path fill="#ffffff" stroke="#222222" stroke-linejoin="round" stroke-dashoffset="" fill-rule="nonzero" marker-start="" marker-mid="" marker-end="" d="M65.30948831054005,49.2192358639216 L63.686897159580354,43.81084031181625 C64.16241230407753,43.413602298440885 64.6087291502284,42.988557624129285 65.03001888351099,42.533720098814506 L70.70491672639197,44.07897597084461 C71.30348184249154,43.24874852289015 71.8186232490302,42.36688013319684 72.27953924435418,41.45124651236671 L68.0562139478331,37.558313981288265 C68.25851644351826,36.98629124202777 68.43370623359625,36.40433755243289 68.55884179793756,35.80450815223616 L74.25042438273069,34.44595414649244 C74.29213623751114,33.945434249639504 74.3317624995526,33.44292816271971 74.3317624995526,32.9304911254655 S74.29005064477217,31.91753419135837 74.25042438273069,31.417014294505435 L68.55884179793756,30.058460288761715 C68.43162064085718,29.45863088856497 68.25643085077925,28.87667719897007 68.0562139478331,28.304654459709568 L72.28162483709323,24.411721928631163 C71.8186232490302,23.49807449786788 71.30348184249154,22.614219918107718 70.70491672639197,21.783992470153255 L65.03001888351099,23.327262152116482 C64.61081474296745,22.874410816868576 64.16241230407753,22.449366142556944 63.686897159580354,22.050141939114724 L65.30948831054005,16.643732577076253 C64.43771054562856,16.075682217949513 63.509621776763424,15.583107081364087 62.548163524073914,15.144159076584309 L58.46040175558926,19.1681801520766 C57.86183663948977,18.97551971558954 57.24867237421704,18.81066594003875 56.618823367032164,18.689508345959286 L55.194363526279616,13.267209463385807 C54.66670856330685,13.229471852115154 54.14113919307312,13.189748050777617 53.60305626640521,13.189748050777617 S52.53940396950358,13.229471852115154 52.01383459926986,13.267209463385807 L50.5872891657783,18.689508345959286 C49.957440158593414,18.81066594003875 49.346361486059735,18.97551971558954 48.74571077722119,19.1681801520766 L44.65794900873653,15.144159076584309 C43.69857634878608,15.589065651564706 42.77257317265997,16.07965459808325 41.90079540774842,16.649691147276894 L43.52338655870817,22.056100509315357 C43.04787141421096,22.453338522690736 42.599468975321045,22.88036938706921 42.18235042751648,23.331234532250214 L36.50536699189651,21.78597866022014 C35.90680187579697,22.616206108174616 35.39166046925833,23.500060687934727 34.9307444739343,24.415694308764927 L39.15615536319446,28.30862683984332 C38.95593846024828,28.88064957910383 38.78074867017036,29.462603268698693 38.65352751308997,30.06243266889551 L32.959859335557766,31.420986674639167 C32.92023307351638,31.92150657149209 32.878521218735926,32.42401265841193 32.878521218735926,32.934463505599254 S32.92023307351638,33.947420439706406 32.959859335557766,34.449926526626186 L38.65352751308997,35.80848053236984 C38.78074867017036,36.40830993256664 38.95593846024828,36.99026362216155 39.15615536319446,37.562286361422004 L34.9307444739343,41.45521889250041 C35.39166046925833,42.36886632326376 35.90680187579697,43.25272090302393 36.50536699189651,44.08294835097837 L42.18235042751648,42.537692478948266 C42.599468975321045,42.992530004263045 43.04787141421096,43.41558848850778 43.52338655870817,43.81481269195001 L41.90079540774842,49.22320824405536 C42.77257317265997,49.79125860318211 43.7006619415251,50.28184754970072 44.660034601475566,50.722781744547284 L48.747796369960184,46.698760669055034 C49.348447078798756,46.891421105542065 49.959525751332436,47.05826107115972 50.58937475851731,47.177432475172346 L52.01592019200889,52.59774516767892 C52.54148956224263,52.63746896901641 53.069144525215385,52.67520658028712 53.607227451883276,52.67520658028712 S54.67087974878488,52.63548277894958 55.19853471175767,52.59774516767892 L56.6229945525102,47.177432475172346 C57.252843559695066,47.056274881092804 57.866007824967774,46.889434915475164 58.46457294106736,46.698760669055034 L62.55233470955198,50.722781744547284 C63.509621776763424,50.27787516956688 64.43771054562856,49.78728622304834 65.30948831054005,49.2192358639216 zM53.60514185914428,39.6835373528464 C49.69048428799849,39.6835373528464 46.51621213920583,36.66055607106 46.51621213920583,32.93247731553235 S49.69048428799849,26.183403468285206 53.60514185914428,26.183403468285206 S60.691985986343674,29.204398560004705 60.691985986343674,32.93247731553235 S57.51979943029,39.6835373528464 53.60514185914428,39.6835373528464 zM85.9151445720851,53.79541777800561 C85.95477083412656,52.708971811424036 85.79000900774379,51.602663944173685 85.43545824210989,50.510259407391516 L88.02993560945423,46.988744418818996 C87.63784417451791,46.29357789541217 87.19569851384513,45.634162793209086 86.69307066374063,45.03433339301233 L82.26744287153423,45.91818797277247 C81.37480917923253,45.19521478842937 80.35912551532843,44.63113680943633 79.27253169829758,44.22794022586042 L77.9982345347547,40.09865107682362 C77.19319573749185,39.963590152276026 76.37772897653394,39.8901011198016 75.5518342518809,39.8881149297347 L73.52046692407274,43.73337889920804 C72.93858654988539,43.84063316281941 72.35670617569804,43.9876112277683 71.78525376520582,44.19616118479034 C71.24925643127696,44.39080781134426 70.74871417391148,44.63312299950322 70.26902784393624,44.89728627839783 L66.08532880945658,43.270596613625784 C65.46590776596676,43.790978411147464 64.9007121336916,44.35307020007363 64.38974191263102,44.962830550604764 L66.2813745269247,48.87165260221818 C65.7412060075178,49.85481668532218 65.36997049997173,50.91345599096752 65.19895189537186,52.019763858217814 L61.25509602587982,54.12512532910714 C61.29472228792126,54.895767075055346 61.41360107404552,55.66640882100353 61.597133235079525,56.43903675701853 L65.98522035798348,57.469869401727614 C66.46699228069772,58.51063299677102 67.11352602979474,59.44215613813617 67.8956233069283,60.236632164886856 L67.16149466279231,64.48310652786932 C67.8288843392796,64.93993024325098 68.5379858705473,65.33319587649261 69.27420010742235,65.6748205679954 L72.85099165484644,63.053049679718015 C73.96886936296265,63.33310247914771 75.13888688955444,63.440356742759064 76.31724678710235,63.35097818974958 L79.34552744416342,66.54278562722055 C79.76264599196791,66.42957279340854 80.17767894703348,66.30841519932906 80.58854071662094,66.15945094431326 C80.95351944594995,66.02836239989944 81.29764224788866,65.87343957468303 81.64176504982743,65.71653055939976 L81.7189319811713,61.416429064611634 C82.66787667742662,60.7431106319404 83.4770866601675,59.9327450846547 84.12153481652553,59.021083843958266 L88.62850072555376,58.75493437499685 C88.94551082188522,58.04189214098807 89.21038109974106,57.30104324604306 89.39599885351412,56.54033245042925 L85.9151445720851,53.79541777800561 zM77.23282199953331,57.78170124222722 C74.72802511996692,58.69137629285675 71.92498847872031,57.49568987259696 70.96770141150888,55.110275602278 S71.26594117318909,50.05343569200986 73.77073805275549,49.14177445131341 C76.27553493232183,48.23209940068388 79.0827427590465,49.427785820943654 80.04002982625794,51.81320009126263 C80.99523130073035,54.198614361581534 79.73761887909968,56.870040001530796 77.23282199953331,57.78170124222722 z" style="color: rgb(0, 0, 0);" class="" stroke-width="2" fill-opacity="1" filter="url(#f117)" id="svg_52"/></g><defs><filter id="f107" inkscape:label="Blur content" inkscape:menu="Blurs" inkscape:menu-tooltip="Blur the contents of objects, preserving the outline" color-interpolation-filters="sRGB">
            <feColorMatrix values="1 0 0 0 0 0 1 0 0 0 0 0 1 0 0 0 0 0 1 0 " result="result7"/>
            <feGaussianBlur result="result6" stdDeviation="5"/>
            <feComposite in2="result7" operator="atop" in="result6" result="result91"/>
            <feComposite operator="in" in2="result91"/>
        </filter><filter id="f117" inkscape:label="Diffuse light" inkscape:menu="ABCs" inkscape:menu-tooltip="Basic diffuse bevel to use for building textures" color-interpolation-filters="sRGB">
            <feGaussianBlur stdDeviation="6" in="SourceGraphic" result="result0"/>
            <feDiffuseLighting diffuseConstant="1" surfaceScale="10" result="result5">
                <feDistantLight elevation="25" azimuth="235"/>
            </feDiffuseLighting>
            <feComposite k1="1" in2="SourceGraphic" in="result5" result="result4" operator="arithmetic" k2="0" k3=".6"/>
        </filter></defs></svg>